<?xml version="1.0" encoding="utf-8"?>
<!-- Generator: Adobe Illustrator 26.0.3, SVG Export Plug-In . SVG Version: 6.00 Build 0)  -->
<svg version="1.1" id="Ebene_1" xmlns="http://www.w3.org/2000/svg" xmlns:xlink="http://www.w3.org/1999/xlink" x="0px" y="0px"
	 viewBox="0 0 720 211" style="enable-background:new 0 0 720 211;" xml:space="preserve">
<style type="text/css">
	.st0{fill:none;stroke:#000000;stroke-width:3;}
	.st1{clip-path:url(#SVGID_00000173148030753570692110000013223594484936109980_);fill:#F8D0BB;}
	.st2{clip-path:url(#SVGID_00000034773296136072544340000005716110184611662511_);fill:none;stroke:#FFE954;stroke-width:3;}
	.st3{clip-path:url(#SVGID_00000029012053892272670480000012299266146756930481_);fill:#F8D0BB;}
	.st4{clip-path:url(#SVGID_00000044139690471785575860000015220517340392558748_);fill:none;stroke:#FFE954;stroke-width:3;}
	
		.st5{clip-path:url(#SVGID_00000083050044548579664400000000844333273966609068_);fill:none;stroke:#000000;stroke-width:2.5;stroke-linecap:round;}
	.st6{fill:none;stroke:#000000;stroke-width:3;stroke-linecap:round;}
	
		.st7{clip-path:url(#SVGID_00000175314591369157252830000015447601242234345659_);fill:none;stroke:#000000;stroke-width:2.5;stroke-linecap:round;}
	.st8{clip-path:url(#SVGID_00000101800319497232234870000013884161701075007872_);fill:#D2825A;}
	.st9{clip-path:url(#SVGID_00000181767443986260087580000016059549261589350531_);fill:none;stroke:#000000;stroke-width:3;}
	.st10{clip-path:url(#SVGID_00000067954110535038260810000004634773847720744118_);fill:#5A4600;}
	.st11{clip-path:url(#SVGID_00000060749190661195380400000012493042724704775065_);fill:#786400;}
	.st12{clip-path:url(#SVGID_00000013911152406851829040000014308851682161862055_);fill:#5A4600;}
	.st13{clip-path:url(#SVGID_00000070809156935374151390000009758867547267897250_);fill:none;stroke:#000000;stroke-width:3;}
	.st14{clip-path:url(#SVGID_00000006666561851597091360000003546726814956273296_);fill:#786400;}
	.st15{clip-path:url(#SVGID_00000115502925464080999350000011416230323658081935_);fill:none;stroke:#000000;stroke-width:3;}
	.st16{clip-path:url(#SVGID_00000015333080045670686110000013140716691603573139_);fill:#786400;}
	.st17{clip-path:url(#SVGID_00000101098379203660673230000008405734197768529830_);fill:none;stroke:#000000;stroke-width:3;}
	.st18{clip-path:url(#SVGID_00000054957077309700411140000016102081391927665826_);fill:none;stroke:#000000;stroke-width:3;}
	.st19{clip-path:url(#SVGID_00000072263156404293717520000015765480003831285655_);fill:none;stroke:#000000;stroke-width:3;}
	.st20{clip-path:url(#SVGID_00000032606755024884955130000011742401898088490151_);fill:#96B450;}
	.st21{clip-path:url(#SVGID_00000090280680321766958210000000817243858098071682_);fill:#FFFFFF;}
	.st22{clip-path:url(#SVGID_00000047041644148711574300000010671130315934666113_);fill:#5A7814;}
	.st23{clip-path:url(#SVGID_00000119821624773320587470000000803483291620925077_);fill:none;stroke:#000000;stroke-width:3;}
	.st24{clip-path:url(#SVGID_00000169552114011078650620000016174901602997625013_);fill:#789632;}
	
		.st25{clip-path:url(#SVGID_00000093162693988800327930000013155824230142964882_);fill:none;stroke:#000000;stroke-width:3;stroke-linecap:round;stroke-linejoin:round;}
	.st26{clip-path:url(#SVGID_00000021100866265960109740000006284158747086451858_);fill:#789632;}
	
		.st27{clip-path:url(#SVGID_00000066499941797729311420000001584563142763446414_);fill:none;stroke:#000000;stroke-width:3;stroke-linecap:round;stroke-linejoin:round;}
	.st28{clip-path:url(#SVGID_00000163068514252440431370000016360130962330395562_);fill:none;stroke:#000000;stroke-width:3;}
	.st29{clip-path:url(#SVGID_00000133515343489026326140000006987422026745960875_);fill:#968200;}
	.st30{clip-path:url(#SVGID_00000150064093446045913430000015267801982659268526_);fill:none;stroke:#000000;stroke-width:3;}
	.st31{clip-path:url(#SVGID_00000061451595575374056790000006441751822011237287_);fill:none;stroke:#000000;stroke-width:3;}
	.st32{clip-path:url(#SVGID_00000104687440384790923540000014871752732315831733_);fill:#968200;}
	.st33{clip-path:url(#SVGID_00000102507316735166568070000008086586225770685837_);fill:none;stroke:#000000;stroke-width:3;}
	.st34{clip-path:url(#SVGID_00000129919707743275327030000003222909131115120768_);fill:#FFFFFF;}
	.st35{clip-path:url(#SVGID_00000009577624686396375400000009747719390151917725_);fill:none;stroke:#000000;stroke-width:3;}
	.st36{clip-path:url(#SVGID_00000012473817264122425970000010465542539645717120_);fill:#FFE954;}
	.st37{clip-path:url(#SVGID_00000084518982948169436690000003368101821893729187_);fill:none;stroke:#000000;stroke-width:3;}
	.st38{clip-path:url(#SVGID_00000031207858541783177910000013113651573546685874_);fill:#789632;}
	
		.st39{clip-path:url(#SVGID_00000171705441095532837880000012319346352072436648_);fill:none;stroke:#000000;stroke-width:3;stroke-linecap:round;stroke-linejoin:round;}
	.st40{clip-path:url(#SVGID_00000111191426560598282350000004881701476488230587_);fill:none;stroke:#000000;stroke-width:3;}
	.st41{clip-path:url(#SVGID_00000090254181333542404920000009587648435730148994_);fill:#968200;}
	.st42{clip-path:url(#SVGID_00000026124578800514779420000004363160478947566007_);fill:none;stroke:#000000;stroke-width:3;}
	.st43{clip-path:url(#SVGID_00000100375574157276051120000008549893206124103819_);fill:none;stroke:#000000;stroke-width:3;}
	.st44{clip-path:url(#SVGID_00000020377424005370087680000013558278276788180907_);fill:#968200;}
	.st45{clip-path:url(#SVGID_00000056421585847357823360000013666882190136513409_);fill:none;stroke:#000000;stroke-width:3;}
	.st46{clip-path:url(#SVGID_00000069392739020036165450000015669087638727293849_);fill:#FFFFFF;}
	.st47{clip-path:url(#SVGID_00000086661936187015979380000008571683497738021806_);fill:none;stroke:#000000;stroke-width:3;}
	.st48{clip-path:url(#SVGID_00000120522432614000509890000000469765531840972464_);fill:#FFE954;}
	.st49{clip-path:url(#SVGID_00000049910102487907190680000000086482504607164326_);fill:none;stroke:#000000;stroke-width:3;}
	.st50{clip-path:url(#SVGID_00000121987206842870147810000014639366807568189326_);fill:#FFFFFF;}
	.st51{clip-path:url(#SVGID_00000161627185058391912680000010802520860495444371_);fill:none;stroke:#000000;stroke-width:3;}
	.st52{clip-path:url(#SVGID_00000060727348410042598070000014664453891043621268_);fill:#FFE954;}
	.st53{clip-path:url(#SVGID_00000005240146259901069730000006699633830592098445_);fill:none;stroke:#000000;stroke-width:3;}
</style>
<line class="st0" x1="568.8" y1="148" x2="568.8" y2="183"/>
<g>
	<g>
		<defs>
			<rect id="SVGID_1_" y="-149" width="720" height="360"/>
		</defs>
		<clipPath id="SVGID_00000137839861171752384970000018384420089180912538_">
			<use xlink:href="#SVGID_1_"  style="overflow:visible;"/>
		</clipPath>
		<path style="clip-path:url(#SVGID_00000137839861171752384970000018384420089180912538_);fill:#F8D0BB;" d="M373.4,150.2
			c0,0-16.3-1.2-17.1-1c-0.7,0.2,8-15.2,8.6-16.8c4.1-11.8,2.1-19.7,1.4-25c-0.8-6,2.8-9.8,8-10.6c5.1-0.7,9,2.8,10.6,7.3l0.4,1.3
			c0,0,3.5,9.9-1.1,24.5c-0.5,1.6-1,3-1.5,4.4L373.4,150.2z"/>
	</g>
	<g>
		<defs>
			<rect id="SVGID_00000078744305385653641990000001331543379886596252_" y="-149" width="720" height="360"/>
		</defs>
		<clipPath id="SVGID_00000072261589417738806070000003739505566671357074_">
			<use xlink:href="#SVGID_00000078744305385653641990000001331543379886596252_"  style="overflow:visible;"/>
		</clipPath>
		
			<path style="clip-path:url(#SVGID_00000072261589417738806070000003739505566671357074_);fill:none;stroke:#FFE954;stroke-width:3;" d="
			M373.4,150.2c0,0-16.3-1.2-17.1-1c-0.7,0.2,8-15.2,8.6-16.8c4.1-11.8,2.1-19.7,1.4-25c-0.8-6,2.8-9.8,8-10.6
			c5.1-0.7,9,2.8,10.6,7.3l0.4,1.3c0,0,3.5,9.9-1.1,24.5c-0.5,1.6-1,3-1.5,4.4L373.4,150.2z"/>
	</g>
	<g>
		<defs>
			<rect id="SVGID_00000130647886943371159910000009257576911927260836_" y="-149" width="720" height="360"/>
		</defs>
		<clipPath id="SVGID_00000136397623821398953010000003441715706039076746_">
			<use xlink:href="#SVGID_00000130647886943371159910000009257576911927260836_"  style="overflow:visible;"/>
		</clipPath>
		<path style="clip-path:url(#SVGID_00000136397623821398953010000003441715706039076746_);fill:#F8D0BB;" d="M369.7,140.4
			c-1.6-3.8-4-6.5-8.6-13.9c-8.6-13.5-7.5-23.2-7.5-29.3c0-6-4.2-9.4-9.4-9.4c-5.2,0-8.5,4.1-9.5,8.7l-0.2,1.3c0,0-2,10.3,4.5,24.2
			c2,4.4,4.2,7.7,6,10.5c3.1,4.7,7.2,14.4,7.2,14.4l15.9,1.5l1.5-7.4"/>
	</g>
	<g>
		<defs>
			<rect id="SVGID_00000008115570129305567810000015106792095238539705_" y="-149" width="720" height="360"/>
		</defs>
		<clipPath id="SVGID_00000166669757767585038610000005914844495654187945_">
			<use xlink:href="#SVGID_00000008115570129305567810000015106792095238539705_"  style="overflow:visible;"/>
		</clipPath>
		
			<path style="clip-path:url(#SVGID_00000166669757767585038610000005914844495654187945_);fill:none;stroke:#FFE954;stroke-width:3;" d="
			M369.7,140.4c-1.6-3.8-4-6.5-8.6-13.9c-8.6-13.5-7.5-23.2-7.5-29.3c0-6-4.2-9.4-9.4-9.4c-5.2,0-8.5,4.1-9.5,8.7l-0.2,1.3
			c0,0-2,10.3,4.5,24.2c2,4.4,4.2,7.7,6,10.5c3.1,4.7,7.2,14.4,7.2,14.4l15.9,1.5l1.5-7.4"/>
	</g>
	<g>
		<defs>
			<rect id="SVGID_00000103226173368776947580000014816049088825522099_" y="-149" width="720" height="360"/>
		</defs>
		<clipPath id="SVGID_00000046303135436529669670000006290052727953074326_">
			<use xlink:href="#SVGID_00000103226173368776947580000014816049088825522099_"  style="overflow:visible;"/>
		</clipPath>
		
			<path style="clip-path:url(#SVGID_00000046303135436529669670000006290052727953074326_);fill:none;stroke:#000000;stroke-width:2.5;stroke-linecap:round;" d="
			M339.6,103.8c1.2,1.1,2.7,1.7,4.5,1.7c1.7,0,3.2-0.6,4.4-1.7"/>
	</g>
</g>
<line class="st6" x1="340.8" y1="95.5" x2="340.8" y2="97.9"/>
<line class="st6" x1="347.3" y1="95.5" x2="347.3" y2="97.9"/>
<g>
	<g>
		<defs>
			<rect id="SVGID_00000081623116369480507900000005199707337628462209_" y="-149" width="720" height="360"/>
		</defs>
		<clipPath id="SVGID_00000029725570421476945420000009261773407979880591_">
			<use xlink:href="#SVGID_00000081623116369480507900000005199707337628462209_"  style="overflow:visible;"/>
		</clipPath>
		
			<path style="clip-path:url(#SVGID_00000029725570421476945420000009261773407979880591_);fill:none;stroke:#000000;stroke-width:2.5;stroke-linecap:round;" d="
			M371.5,112.8c1.3,0.9,2.9,1.4,4.6,1.2c1.7-0.2,3.1-1,4.2-2.1"/>
	</g>
</g>
<line class="st6" x1="371.9" y1="104.4" x2="372.1" y2="106.8"/>
<line class="st6" x1="378.3" y1="103.7" x2="378.6" y2="106.1"/>
<g>
	<defs>
		<rect id="SVGID_00000103262413358199707430000001848616497021788071_" y="-149" width="720" height="360"/>
	</defs>
	<clipPath id="SVGID_00000061456348705253082160000014793028059936548540_">
		<use xlink:href="#SVGID_00000103262413358199707430000001848616497021788071_"  style="overflow:visible;"/>
	</clipPath>
	<path style="clip-path:url(#SVGID_00000061456348705253082160000014793028059936548540_);fill:#D2825A;" d="M385.6,56.6
		c0-8.5-5.5-12.1-12.2-12.1c-4.5,0-8.5,2.4-10.6,6.1c-2.1-3.6-6-6.1-10.6-6.1c-6.7,0-12.2,3.7-12.2,12.1c0,12.6,22.6,24.6,22.6,24.6
		C362.7,81.2,385.6,69.2,385.6,56.6"/>
</g>
<g>
	<defs>
		<rect id="SVGID_00000080196270835067218540000010793038959950203551_" y="-149" width="720" height="360"/>
	</defs>
	<clipPath id="SVGID_00000045602304655335698470000001204940384273972667_">
		<use xlink:href="#SVGID_00000080196270835067218540000010793038959950203551_"  style="overflow:visible;"/>
	</clipPath>
	
		<path style="clip-path:url(#SVGID_00000045602304655335698470000001204940384273972667_);fill:none;stroke:#000000;stroke-width:3;" d="
		M385.6,56.6c0-8.5-5.5-12.1-12.2-12.1c-4.5,0-8.5,2.4-10.6,6.1c-2.1-3.6-6-6.1-10.6-6.1c-6.7,0-12.2,3.7-12.2,12.1
		c0,12.6,22.6,24.6,22.6,24.6C362.7,81.2,385.6,69.2,385.6,56.6z"/>
</g>
<g>
	<defs>
		<rect id="SVGID_00000148652642538767822680000013785450348077587602_" y="-149" width="720" height="360"/>
	</defs>
	<clipPath id="SVGID_00000090977643706624454650000010203678463580765358_">
		<use xlink:href="#SVGID_00000148652642538767822680000013785450348077587602_"  style="overflow:visible;"/>
	</clipPath>
	<path style="clip-path:url(#SVGID_00000090977643706624454650000010203678463580765358_);fill:#5A4600;" d="M391.8,168.8
		c0,0,10.8-18.6,10.8-19.5s-7.5-12.8-13.8-14.4c-1.6-0.4-3.3-0.6-5-0.6c-5.7,0-10.9,2.5-14.4,6.4c-1.9-2.4-4.8-3.9-8.1-3.9
		c-2.1,0-4,0.6-5.7,1.7c-1.7-3.5-5.3-5.8-9.4-5.8c-4.7,0-8.7,3.1-10,7.3c-2.2-1.2-4.8-1.9-7.6-1.9c-8.8,0-15.9,7.1-15.9,15.8
		c0,1.4,0.2,2.7,0.5,4c-5.6,4.2-9.4,10.7-10,17.9h51.9L391.8,168.8z"/>
</g>
<g>
	<defs>
		<rect id="SVGID_00000152260702586389601550000012073787331682135202_" y="-149" width="720" height="360"/>
	</defs>
	<clipPath id="SVGID_00000039813657847862812470000004667050941863907478_">
		<use xlink:href="#SVGID_00000152260702586389601550000012073787331682135202_"  style="overflow:visible;"/>
	</clipPath>
	<path style="clip-path:url(#SVGID_00000039813657847862812470000004667050941863907478_);fill:#786400;" d="M406.8,146.5
		c3.2,0,6,2.1,6.9,5c1.6-0.8,3.3-1.3,5.2-1.3c6,0,10.9,4.8,10.9,10.7c0,0.9-0.1,1.8-0.4,2.7c3.9,2.9,6.5,7.2,6.9,12.2H351
		c1.1-3.9,4.3-6.9,8.2-7.9c0-0.4,0-0.7,0-1.1c0.4-5.1,4.1-9.2,8.9-10.3c1.9-5.1,6.9-8.8,12.7-8.8c2.1,0,4.1,0.5,5.9,1.4"/>
</g>
<g>
	<defs>
		<rect id="SVGID_00000009591107080146584730000011054140659119913878_" y="-149" width="720" height="360"/>
	</defs>
	<clipPath id="SVGID_00000003062897476098147430000009484115755021331864_">
		<use xlink:href="#SVGID_00000009591107080146584730000011054140659119913878_"  style="overflow:visible;"/>
	</clipPath>
	<path style="clip-path:url(#SVGID_00000003062897476098147430000009484115755021331864_);fill:#5A4600;" d="M388.8,134.9
		c-1.6-0.4-3.3-0.6-5-0.6c-5.7,0-10.9,2.5-14.4,6.4c-1.9-2.4-4.8-3.9-8.1-3.9c-2.1,0-4,0.6-5.7,1.7c-1.7-3.5-5.3-5.8-9.4-5.8
		c-4.7,0-8.7,3.1-10,7.3c-2.2-1.2-4.8-1.9-7.6-1.9c-8.8,0-15.9,7.1-15.9,15.8c0,1.4,0.2,2.7,0.5,4c-5.6,4.2-9.4,10.7-10,17.9"/>
</g>
<g>
	<defs>
		<rect id="SVGID_00000044155245816019762910000005265184703126339203_" y="-149" width="720" height="360"/>
	</defs>
	<clipPath id="SVGID_00000014629239511655071170000007914758448855869598_">
		<use xlink:href="#SVGID_00000044155245816019762910000005265184703126339203_"  style="overflow:visible;"/>
	</clipPath>
	
		<path style="clip-path:url(#SVGID_00000014629239511655071170000007914758448855869598_);fill:none;stroke:#000000;stroke-width:3;" d="
		M388.8,134.9c-1.6-0.4-3.3-0.6-5-0.6c-5.7,0-10.9,2.5-14.4,6.4c-1.9-2.4-4.8-3.9-8.1-3.9c-2.1,0-4,0.6-5.7,1.7
		c-1.7-3.5-5.3-5.8-9.4-5.8c-4.7,0-8.7,3.1-10,7.3c-2.2-1.2-4.8-1.9-7.6-1.9c-8.8,0-15.9,7.1-15.9,15.8c0,1.4,0.2,2.7,0.5,4
		c-5.6,4.2-9.4,10.7-10,17.9"/>
</g>
<g>
	<defs>
		<rect id="SVGID_00000090294754267412445910000006999334495011139492_" y="-149" width="720" height="360"/>
	</defs>
	<clipPath id="SVGID_00000138566332962632982560000017239332908154541215_">
		<use xlink:href="#SVGID_00000090294754267412445910000006999334495011139492_"  style="overflow:visible;"/>
	</clipPath>
	<path style="clip-path:url(#SVGID_00000138566332962632982560000017239332908154541215_);fill:#786400;" d="M406.8,146.5
		c3.2,0,6,2.1,6.9,5c1.6-0.8,3.3-1.3,5.2-1.3c6,0,10.9,4.8,10.9,10.7c0,0.9-0.1,1.8-0.4,2.7c3.9,2.9,6.5,7.2,6.9,12.2"/>
</g>
<g>
	<defs>
		<rect id="SVGID_00000016075199715051158780000002786863918268706990_" y="-149" width="720" height="360"/>
	</defs>
	<clipPath id="SVGID_00000044878281417092960720000007300604885825677454_">
		<use xlink:href="#SVGID_00000016075199715051158780000002786863918268706990_"  style="overflow:visible;"/>
	</clipPath>
	
		<path style="clip-path:url(#SVGID_00000044878281417092960720000007300604885825677454_);fill:none;stroke:#000000;stroke-width:3;" d="
		M406.8,146.5c3.2,0,6,2.1,6.9,5c1.6-0.8,3.3-1.3,5.2-1.3c6,0,10.9,4.8,10.9,10.7c0,0.9-0.1,1.8-0.4,2.7c3.9,2.9,6.5,7.2,6.9,12.2"
		/>
</g>
<g>
	<defs>
		<rect id="SVGID_00000135666582376088107900000017138968768605081522_" y="-149" width="720" height="360"/>
	</defs>
	<clipPath id="SVGID_00000132079983048010911990000012147280168800996259_">
		<use xlink:href="#SVGID_00000135666582376088107900000017138968768605081522_"  style="overflow:visible;"/>
	</clipPath>
	<path style="clip-path:url(#SVGID_00000132079983048010911990000012147280168800996259_);fill:#786400;" d="M351,175.8
		c1.1-3.9,4.3-6.9,8.2-7.9c0-0.4,0-0.7,0-1.1c0.4-5.1,4.1-9.2,8.9-10.3c1.9-5.1,6.9-8.8,12.7-8.8c2.1,0,4.1,0.5,5.9,1.4"/>
</g>
<g>
	<defs>
		<rect id="SVGID_00000132805421342514453440000015363626661253843088_" y="-149" width="720" height="360"/>
	</defs>
	<clipPath id="SVGID_00000173858524179302629420000005372155710409620897_">
		<use xlink:href="#SVGID_00000132805421342514453440000015363626661253843088_"  style="overflow:visible;"/>
	</clipPath>
	
		<path style="clip-path:url(#SVGID_00000173858524179302629420000005372155710409620897_);fill:none;stroke:#000000;stroke-width:3;" d="
		M351,175.8c1.1-3.9,4.3-6.9,8.2-7.9c0-0.4,0-0.7,0-1.1c0.4-5.1,4.1-9.2,8.9-10.3c1.9-5.1,6.9-8.8,12.7-8.8c2.1,0,4.1,0.5,5.9,1.4"
		/>
</g>
<g>
	<defs>
		<rect id="SVGID_00000061462511696530664360000015333881180291140766_" y="-149" width="720" height="360"/>
	</defs>
	<clipPath id="SVGID_00000039845953536763776870000014047628052337906589_">
		<use xlink:href="#SVGID_00000061462511696530664360000015333881180291140766_"  style="overflow:visible;"/>
	</clipPath>
	
		<path style="clip-path:url(#SVGID_00000039845953536763776870000014047628052337906589_);fill:none;stroke:#000000;stroke-width:3;" d="
		M369.7,140.4c-1.6-3.8-4-6.5-8.6-13.9c-8.6-13.5-7.5-23.2-7.5-29.3c0-6-4.2-9.4-9.4-9.4c-5.2,0-8.5,4.1-9.5,8.7l-0.2,1.3
		c0,0-2,10.3,4.5,24.2c2,4.4,4.2,7.7,6,10.5"/>
</g>
<g>
	<defs>
		<rect id="SVGID_00000056386694887524299060000009665526518450076310_" y="-149" width="720" height="360"/>
	</defs>
	<clipPath id="SVGID_00000120516792639212043180000013030158984401305244_">
		<use xlink:href="#SVGID_00000056386694887524299060000009665526518450076310_"  style="overflow:visible;"/>
	</clipPath>
	
		<path style="clip-path:url(#SVGID_00000120516792639212043180000013030158984401305244_);fill:none;stroke:#000000;stroke-width:3;" d="
		M364.9,132.4c4.1-11.8,2.1-19.7,1.4-25c-0.8-6,2.8-9.8,8-10.6c5.1-0.7,9,2.8,10.6,7.3l0.4,1.3c0,0,3.5,9.9-1.1,24.5
		c-0.5,1.6-1,3-1.5,4.4"/>
</g>
<g>
	<defs>
		<rect id="SVGID_00000139983564503268741950000005149644541895029946_" y="-149" width="720" height="360"/>
	</defs>
	<clipPath id="SVGID_00000030486020033649656820000018439088880556427683_">
		<use xlink:href="#SVGID_00000139983564503268741950000005149644541895029946_"  style="overflow:visible;"/>
	</clipPath>
	<path style="clip-path:url(#SVGID_00000030486020033649656820000018439088880556427683_);fill:#96B450;" d="M387.1,161.6
		c10.4,3.2,21.5-2.7,24.7-13.1c3.2-10.5-2.7-21.5-13.1-24.7s-21.5,2.7-24.7,13.1S376.7,158.4,387.1,161.6"/>
</g>
<g>
	<defs>
		<rect id="SVGID_00000034792282399673850680000005223728126353977017_" y="-149" width="720" height="360"/>
	</defs>
	<clipPath id="SVGID_00000035507540401879197670000009202723968931992984_">
		<use xlink:href="#SVGID_00000034792282399673850680000005223728126353977017_"  style="overflow:visible;"/>
	</clipPath>
	<path style="clip-path:url(#SVGID_00000035507540401879197670000009202723968931992984_);fill:#FFFFFF;" d="M409.2,134.2
		c-1.6,1.8-5.6,7-12.6,12.4c-0.6-2.6-1.4-5.1-2.1-7c2.8-3,6.9-6,13.1-7.9C408.7,131.6,411,131.4,409.2,134.2 M393.4,140.9
		c0.6,1.9,1.4,4.2,2,6.6c-1.9,1.3-3.9,2.7-6.2,3.9c-0.1-0.1-0.2-0.2-0.4-0.3c0.1-0.6,0.3-1.4,0.6-2.5c0.6-1.8,1.4-3.6,2.5-5.5
		C392.4,142.3,392.9,141.6,393.4,140.9 M392.9,139.3c-1.1,1.3-2.1,2.7-3,4.3c-0.8,1.4-1.7,3.3-2.5,5.6c-0.4-0.6-0.7-1-0.9-1.4
		c-2.1-4-2.9-8.8-3.1-10.6c-1-6.1,2-6.7,2.8-6.8c2.4-0.1,4.6,4,5.9,6.8C392.2,137.5,392.5,138.2,392.9,139.3 M392.2,155.3
		c1.2-0.7,2.6-1.6,4.1-2.6c0.1,1.8-0.2,3.2-1,3.8C394.5,157.1,393.4,156.5,392.2,155.3 M408.9,130.4c-0.9,0-9,1.8-14.9,7.7
		c-2.7-7.8-6.1-8.7-7.2-9.1c-7.6-1.7-6.4,9.4-5.5,13.2c0.2,0.9,0.5,1.9,0.8,2.7c0.7,1.7,2.2,4.8,4.3,7.6c-0.5,2.3-0.8,4.9-0.7,7.7
		c0.8,8.5,4.9,4.9,4.9,4.9s-1.9-2.3-2.3-7.6c0.5-0.2,1.1-0.6,1.8-1c0.5,0.4,1.1,0.8,1.6,1.1c1.3,0.7,2.7,1,4,0.2
		c1.4-0.9,1.8-3.2,1.6-5.9c1.3-0.9,2.7-1.9,4-3C404.9,146,418.7,133,408.9,130.4"/>
</g>
<g>
	<defs>
		<rect id="SVGID_00000102538918869621840800000012298099368845412015_" y="-149" width="720" height="360"/>
	</defs>
	<clipPath id="SVGID_00000070799565156375202150000004701984130581601707_">
		<use xlink:href="#SVGID_00000102538918869621840800000012298099368845412015_"  style="overflow:visible;"/>
	</clipPath>
	<path style="clip-path:url(#SVGID_00000070799565156375202150000004701984130581601707_);fill:#5A7814;" d="M79.2,181.5h8l-1.2-8.3
		L79.2,181.5z M606.1,181.5h16.2l-0.8-10.3l-4.5-2.1v7.2c0-5.2-2.9-4.1-3.7-8.3c-0.8-4.1-4.5,3.1-4.5,3.1L606.1,181.5z M88.8,181.5
		h9.1l-1.4-10.3c0,0-2.1-7.2-2.6-3.1s-1.6,4.8-1.6,10c0-2.4-0.5-8.9-0.5-8.9l-2.6,2.1L88.8,181.5z M565.5,181.5h40.8
		c0,0,0.1-6.4-1.5-11.5c-1.6-5.2-4.2-0.9-4.2-0.9l-8.2,2.1c0,0-2.1,1-2.9,0c-0.8-1-5.4,2.1-5.4,2.1l-5.8,1c0,0-2.5-8.3-2.5-13.4
		c0-5.2-4.1,8.3-4.1,8.3s-8.2,2.1-9.1,2.1s-5.8,1-5.8,1s-3.7-11.4-5.8-11.4s0,10.3,0,10.3l-3.7,4.1c0,0-2.1-3.1-4.5-6.2
		c-2.5-3.1-4.1,1-4.1,1l-4.1,3.1l-8.2-4.1l-8.2,4.1l-2.5-6.2v8.3l-5.6-3.2l-0.4-1.9v1.7l-4.8-2.8l-4.3,2c-1-2.2-2.4-5.1-2.4-3.1
		c0,1.4-0.1,2.9-0.2,4l-1.1-0.5l-3.6-10.8v9.2l-2.6-1.1l-2.3-1.9l-0.4,1.5l-1.2,1.1c-0.6-4.2-1.7-11.9-1.7-8.9
		c0,2.3-0.7,6.1-1.4,9.1l-2-1.5c-0.4-2.4-0.9-4.4-1.1-3.4c-0.1,0.6-0.3,1.3-0.5,2.2l-0.1-0.1v0.7c-0.6,2.2-1.4,4.5-1.4,4.5l-1.6,0.4
		l-1.6-0.4c0,0-0.7-2.3-1.4-4.5v-0.7l-0.1,0.1c-0.2-0.8-0.4-1.6-0.5-2.2c-0.2-1-0.7,1-1.1,3.4l-2,1.5c-0.7-3-1.4-6.8-1.4-9.1
		c0-3.1-1.1,4.7-1.7,8.9l-1.2-1.1l-0.4-1.5l-2.3,1.9l-2.6,1.1v-9.2l-3.5,10.5v-0.1l-1.3-0.8c0-0.7-0.1-1.5-0.1-2.3
		c0-1.5-0.8-0.3-1.6,1.4l-0.6-0.3v1.6c-0.1,0.1-0.1,0.3-0.2,0.4l-2.2-1c-0.3-0.5-0.5-1.2-0.6-2c-0.5-3.1-2.2,0.1-3.1,1.9l-3.2,1.9
		v-1.7l-0.4,1.9l-1,0.6c-0.2-0.8-0.4-1.7-0.6-2.5c-1.3-5.2-2-1-2-1l-2,0.6V167l-1.2,3.1l-3.4,1.1c0,0-0.5,0.3-1.1,0.4l-5-2.5
		l-5.6,2.8c-0.6-2.8-1.5-7.7-1.5-11.1c0-5.2-3.3,8.3-3.3,8.3s-0.9,0.3-2.1,0.7c-0.5-0.9-1.9-3.2-3.9-0.7c-0.6,0.7-1.1,1.4-1.6,2.1
		c-1.2,0.2-4.2,1-4.2,1s-0.7-2.8-1.7-5.7c0.3-2.8,0.4-5.7-0.7-5.7c-0.4,0-0.8,0.4-1.2,1c-0.4-0.6-0.7-1-1-1c-0.7,0-0.8,1.9-0.7,4
		c-1.5,3.3-2.8,7.4-2.8,7.4s-0.6-0.1-1.3-0.3c-0.5-0.9-1.1-1.9-1.7-2.8c-2-3.1-3.3,1-3.3,1l-0.8,0.8c-2.6-0.6-7.6-1.8-7.6-1.8
		s-4.1-13.4-4.1-8.3c0,3.4-1.1,8.2-1.8,11.1l-2.1,1.3l-2-6.2v6.6l-2.3-0.4c0,0-1-0.7-2.2-1.3l-0.3-1.8v1.6c-0.1-0.1-0.3-0.1-0.4-0.2
		L364,169l-3.1,1.8l-0.6-0.1c-0.8-2.1-1.8-4.6-1.8-2.7c0,0.8,0,1.5,0,2.2l-1.5-0.4l-2.5-9.1v8.5l-0.8-0.2c0,0-0.6-3-1.8-0.7
		l-1.3-1.4l-0.3,1.5l-1,1.1c-0.5-4.2-1.4-11.9-1.4-8.9c0,2.3-0.6,6.1-1.1,9.1l-1.6-1.5c-0.4-2.4-0.7-4.4-0.9-3.4
		c-0.1,0.6-0.2,1.3-0.4,2.2l-0.1-0.1v0.7c0,0.1-0.1,0.3-0.1,0.4c-1.1-1.4-2.2-2.2-2.7-0.1c-0.3,1.3-0.7,2.1-1.2,2.7
		c-0.2-0.8-0.5-1.9-0.7-3v-0.7L339,167c-0.2-0.8-0.3-1.6-0.4-2.2c-0.2-1-0.5,1-0.9,3.4l-1.1,1l-0.6,0.3c-0.5-3-1.1-6.7-1.1-8.9
		c0-3.1-0.9,4.7-1.4,8.9l-1-1.1l-0.3-1.5L330,169l-2.1,1.1v-9.2l-2.9,10.8l-0.9,0.5c-0.1-1.1-0.1-2.6-0.1-4c0-2-1.2,0.9-1.9,3.1
		l-3.5-2l-3.8,2.8v-1.7l-0.3,1.9l-4.5,3.2V167l-2,6.2l-6.6-4.1l-6.6,4.1l-3.3-3.1c0,0-1.3-4.1-3.3-1s-3.6,6.2-3.6,6.2l-3-4.1
		c0,0-2.8,8.2-1.6-8.2c0.1-1.3-3.1,9.2-3.1,9.2s-9.6,4.4-10.3,4.4c-0.7,0-1.6-7.5-1.6-7.5s-1.1-8.3-1.1-3.1c0,5.2-4.2,8.3-4.2,8.3
		l-2.4-0.5l-0.4-0.5l-0.1,0.4l-1.7-0.4c0,0-3.6-3.1-4.3-2.1s-2.3,0-2.3,0l-5.5-1.7c-0.6-3-2.4-8.2-2.5-7.3c-0.2-0.9,0.5,4.2-0.4,7.7
		l-3,1.3c0,0-1.2,1-1.6,0c0-0.1-0.1-0.1-0.2-0.2c-0.4-1-3-6.7-3.6-2.9c-0.5,3.4-2.2,3.3-2.8,6l-0.2-0.3v-4.7l-2.9,5.5l-0.5-5.5
		c0,0-4.7,2.1-5.1,2.1s-3.3,1-3.3,1l-3.3-1l-2.1,4.1c0,0-1.2-3.1-2.6-6.2c-1.4-3.1-2.3,1-2.3,1l-2.3,3.1l-4.7-4.1l-4.7,4.1l-1.4-6.2
		v8.3l-3.2-3.2l-0.2-1.9v1.7l-2.7-2.8l-2.5,2c-0.6-2.2-1.4-5.1-1.4-3.1c0,1.4-0.1,2.9-0.1,4l-0.6-0.5l-2.1-1.5l-1.5-1.1l-1.3-1.9
		l-0.2,1.5l-0.7,1.1c-0.3-4.2-1.4-2.8-1.8,0.2l-1.1-1.5c-0.3-2.4-0.5-4.4-0.6-3.4c-0.1,0.6-0.2,1.3-0.3,2.2l-0.1-0.1v0.7
		c-0.3,2.2-0.8,4.5-0.8,4.5l-0.9,0.4l-0.9-0.4c0,0-0.4-2.3-0.8-4.5V167l-0.1,0.1c-0.1-0.8-0.2-1.6-0.3-2.2c-0.1-1-0.4,1-0.6,3.4
		l-1.1,1.5c-0.4-3-1.5-4.4-1.8-0.2l-0.7-1.1l-0.2-1.5l-1.3,1.9l-1.5,1.1l-0.3-24.9l-1.7,26.4l-0.6,0.5c-0.1-1.1-0.1-2.6-0.1-4
		c0-2-0.8,0.9-1.4,3.1l-2.5-2l-3.4-27.9l0.7,28.9l-0.2,1.9l-3.2-5l-1.4,6.2l-4.7-4.1l-4.7,4.1l-2.3-3.1c0,0-0.9-4.1-2.3-1
		c-1.4,3.1-4.7,2.1-4.7,2.1s1.2-10.3,0-10.3s-6.5,4.8-6.5,4.8s0.4,5.6-0.1,5.6s-5.1-2.1-5.1-2.1s-2.3-13.4-2.3-8.3
		c0,5.2-5.2,5.3-5.2,5.3l0.5,7.1c0,0-2.6-3.1-3-2.1c-0.5,1-1.6,0-1.6,0l-4.7-2.1c0,0-0.5-4.1-1.4,1c-0.9,5.2-1.9,11.4-1.9,11.4h23.2
		h30.5h19.8h0.1h19.8H211h10.9h0.3h2.3h12.9h7.7h10.8h8h6.3H313h1.7h14h2.9h16.1h40.8H442h34.8h0.2h34.8L565.5,181.5L565.5,181.5z
		 M639.2,181.5l-11.9-8.3l-2.1,8.3H639.2z"/>
</g>
<g>
	<defs>
		<rect id="SVGID_00000088107772481347793220000010108496895930298510_" y="-149" width="720" height="360"/>
	</defs>
	<clipPath id="SVGID_00000125603753491518903450000014123559412932508829_">
		<use xlink:href="#SVGID_00000088107772481347793220000010108496895930298510_"  style="overflow:visible;"/>
	</clipPath>
	
		<path style="clip-path:url(#SVGID_00000125603753491518903450000014123559412932508829_);fill:none;stroke:#000000;stroke-width:3;" d="
		M79.2,181.5h8l-1.2-8.3L79.2,181.5z M606.1,181.5h16.2l-0.8-10.3l-4.5-2.1v7.2c0-5.2-2.9-4.1-3.7-8.3c-0.8-4.1-4.5,3.1-4.5,3.1
		L606.1,181.5z M88.8,181.5h9.1l-1.4-10.3c0,0-2.1-7.2-2.6-3.1s-1.6,4.8-1.6,10c0-2.4-0.5-8.9-0.5-8.9l-2.6,2.1L88.8,181.5z
		 M565.5,181.5h40.8c0,0,0.1-6.4-1.5-11.5c-1.6-5.2-4.2-0.9-4.2-0.9l-8.2,2.1c0,0-2.1,1-2.9,0c-0.8-1-5.4,2.1-5.4,2.1l-5.8,1
		c0,0-2.5-8.3-2.5-13.4c0-5.2-4.1,8.3-4.1,8.3s-8.2,2.1-9.1,2.1s-5.8,1-5.8,1s-3.7-11.4-5.8-11.4s0,10.3,0,10.3l-3.7,4.1
		c0,0-2.1-3.1-4.5-6.2c-2.5-3.1-4.1,1-4.1,1l-4.1,3.1l-8.2-4.1l-8.2,4.1l-2.5-6.2v8.3l-5.6-3.2l-0.4-1.9v1.7l-4.8-2.8l-4.3,2
		c-1-2.2-2.4-5.1-2.4-3.1c0,1.4-0.1,2.9-0.2,4l-1.1-0.5l-3.6-10.8v9.2l-2.6-1.1l-2.3-1.9l-0.4,1.5l-1.2,1.1
		c-0.6-4.2-1.7-11.9-1.7-8.9c0,2.3-0.7,6.1-1.4,9.1l-2-1.5c-0.4-2.4-0.9-4.4-1.1-3.4c-0.1,0.6-0.3,1.3-0.5,2.2l-0.1-0.1v0.7
		c-0.6,2.2-1.4,4.5-1.4,4.5l-1.6,0.4l-1.6-0.4c0,0-0.7-2.3-1.4-4.5v-0.7l-0.1,0.1c-0.2-0.8-0.4-1.6-0.5-2.2c-0.2-1-0.7,1-1.1,3.4
		l-2,1.5c-0.7-3-1.4-6.8-1.4-9.1c0-3.1-1.1,4.7-1.7,8.9l-1.2-1.1l-0.4-1.5l-2.3,1.9l-2.6,1.1v-9.2l-3.5,10.5v-0.1l-1.3-0.8
		c0-0.7-0.1-1.5-0.1-2.3c0-1.5-0.8-0.3-1.6,1.4l-0.6-0.3v1.6c-0.1,0.1-0.1,0.3-0.2,0.4l-2.2-1c-0.3-0.5-0.5-1.2-0.6-2
		c-0.5-3.1-2.2,0.1-3.1,1.9l-3.2,1.9v-1.7l-0.4,1.9l-1,0.6c-0.2-0.8-0.4-1.7-0.6-2.5c-1.3-5.2-2-1-2-1l-2,0.6V167l-1.2,3.1l-3.4,1.1
		c0,0-0.5,0.3-1.1,0.4l-5-2.5l-5.6,2.8c-0.6-2.8-1.5-7.7-1.5-11.1c0-5.2-3.3,8.3-3.3,8.3s-0.9,0.3-2.1,0.7c-0.5-0.9-1.9-3.2-3.9-0.7
		c-0.6,0.7-1.1,1.4-1.6,2.1c-1.2,0.2-4.2,1-4.2,1s-0.7-2.8-1.7-5.7c0.3-2.8,0.4-5.7-0.7-5.7c-0.4,0-0.8,0.4-1.2,1
		c-0.4-0.6-0.7-1-1-1c-0.7,0-0.8,1.9-0.7,4c-1.5,3.3-2.8,7.4-2.8,7.4s-0.6-0.1-1.3-0.3c-0.5-0.9-1.1-1.9-1.7-2.8c-2-3.1-3.3,1-3.3,1
		l-0.8,0.8c-2.6-0.6-7.6-1.8-7.6-1.8s-4.1-13.4-4.1-8.3c0,3.4-1.1,8.2-1.8,11.1l-2.1,1.3l-2-6.2v6.6l-2.3-0.4c0,0-1-0.7-2.2-1.3
		l-0.3-1.8v1.6c-0.1-0.1-0.3-0.1-0.4-0.2L364,169l-3.1,1.8l-0.6-0.1c-0.8-2.1-1.8-4.6-1.8-2.7c0,0.8,0,1.5,0,2.2l-1.5-0.4l-2.5-9.1
		v8.5l-0.8-0.2c0,0-0.6-3-1.8-0.7l-1.3-1.4l-0.3,1.5l-1,1.1c-0.5-4.2-1.4-11.9-1.4-8.9c0,2.3-0.6,6.1-1.1,9.1l-1.6-1.5
		c-0.4-2.4-0.7-4.4-0.9-3.4c-0.1,0.6-0.2,1.3-0.4,2.2l-0.1-0.1v0.7c0,0.1-0.1,0.3-0.1,0.4c-1.1-1.4-2.2-2.2-2.7-0.1
		c-0.3,1.3-0.7,2.1-1.2,2.7c-0.2-0.8-0.5-1.9-0.7-3v-0.7L339,167c-0.2-0.8-0.3-1.6-0.4-2.2c-0.2-1-0.5,1-0.9,3.4l-1.1,1l-0.6,0.3
		c-0.5-3-1.1-6.7-1.1-8.9c0-3.1-0.9,4.7-1.4,8.9l-1-1.1l-0.3-1.5L330,169l-2.1,1.1v-9.2l-2.9,10.8l-0.9,0.5c-0.1-1.1-0.1-2.6-0.1-4
		c0-2-1.2,0.9-1.9,3.1l-3.5-2l-3.8,2.8v-1.7l-0.3,1.9l-4.5,3.2V167l-2,6.2l-6.6-4.1l-6.6,4.1l-3.3-3.1c0,0-1.3-4.1-3.3-1
		s-3.6,6.2-3.6,6.2l-3-4.1c0,0-2.8,8.2-1.6-8.2c0.1-1.3-3.1,9.2-3.1,9.2s-9.6,4.4-10.3,4.4c-0.7,0-1.6-7.5-1.6-7.5s-1.1-8.3-1.1-3.1
		c0,5.2-4.2,8.3-4.2,8.3l-2.4-0.5l-0.4-0.5l-0.1,0.4l-1.7-0.4c0,0-3.6-3.1-4.3-2.1s-2.3,0-2.3,0l-5.5-1.7c-0.6-3-2.4-8.2-2.5-7.3
		c-0.2-0.9,0.5,4.2-0.4,7.7l-3,1.3c0,0-1.2,1-1.6,0c0-0.1-0.1-0.1-0.2-0.2c-0.4-1-3-6.7-3.6-2.9c-0.5,3.4-2.2,3.3-2.8,6l-0.2-0.3
		v-4.7l-2.9,5.5l-0.5-5.5c0,0-4.7,2.1-5.1,2.1s-3.3,1-3.3,1l-3.3-1l-2.1,4.1c0,0-1.2-3.1-2.6-6.2c-1.4-3.1-2.3,1-2.3,1l-2.3,3.1
		l-4.7-4.1l-4.7,4.1l-1.4-6.2v8.3l-3.2-3.2l-0.2-1.9v1.7l-2.7-2.8l-2.5,2c-0.6-2.2-1.4-5.1-1.4-3.1c0,1.4-0.1,2.9-0.1,4l-0.6-0.5
		l-2.1-1.5l-1.5-1.1l-1.3-1.9l-0.2,1.5l-0.7,1.1c-0.3-4.2-1.4-2.8-1.8,0.2l-1.1-1.5c-0.3-2.4-0.5-4.4-0.6-3.4
		c-0.1,0.6-0.2,1.3-0.3,2.2l-0.1-0.1v0.7c-0.3,2.2-0.8,4.5-0.8,4.5l-0.9,0.4l-0.9-0.4c0,0-0.4-2.3-0.8-4.5V167l-0.1,0.1
		c-0.1-0.8-0.2-1.6-0.3-2.2c-0.1-1-0.4,1-0.6,3.4l-1.1,1.5c-0.4-3-1.5-4.4-1.8-0.2l-0.7-1.1l-0.2-1.5l-1.3,1.9l-1.5,1.1l-0.3-24.9
		l-1.7,26.4l-0.6,0.5c-0.1-1.1-0.1-2.6-0.1-4c0-2-0.8,0.9-1.4,3.1l-2.5-2l-3.4-27.9l0.7,28.9l-0.2,1.9l-3.2-5l-1.4,6.2l-4.7-4.1
		l-4.7,4.1l-2.3-3.1c0,0-0.9-4.1-2.3-1c-1.4,3.1-4.7,2.1-4.7,2.1s1.2-10.3,0-10.3s-6.5,4.8-6.5,4.8s0.4,5.6-0.1,5.6
		s-5.1-2.1-5.1-2.1s-2.3-13.4-2.3-8.3c0,5.2-5.2,5.3-5.2,5.3l0.5,7.1c0,0-2.6-3.1-3-2.1c-0.5,1-1.6,0-1.6,0l-4.7-2.1
		c0,0-0.5-4.1-1.4,1c-0.9,5.2-1.9,11.4-1.9,11.4h23.2h30.5h19.8h0.1h19.8H211h10.9h0.3h2.3h12.9h7.7h10.8h8h6.3H313h1.7h14h2.9h16.1
		h40.8H442h34.8h0.2h34.8L565.5,181.5L565.5,181.5z M639.2,181.5l-11.9-8.3l-2.1,8.3H639.2z"/>
</g>
<g>
	<defs>
		<rect id="SVGID_00000120553450794055682000000014140588693387844530_" y="-149" width="720" height="360"/>
	</defs>
	<clipPath id="SVGID_00000063597177334631246110000001404655683679224963_">
		<use xlink:href="#SVGID_00000120553450794055682000000014140588693387844530_"  style="overflow:visible;"/>
	</clipPath>
	<path style="clip-path:url(#SVGID_00000063597177334631246110000001404655683679224963_);fill:#789632;" d="M271.3,144.3
		c2.2-8.4,5.3-16.1,8.9-22.8c-6.5,6.7-12,16.3-15,27.6c-2.8,10.3-3.1,20.4-1.4,28.9h4C267,168,268.1,156.3,271.3,144.3"/>
</g>
<g>
	<defs>
		<rect id="SVGID_00000117649173240407688430000007620078486274500020_" y="-149" width="720" height="360"/>
	</defs>
	<clipPath id="SVGID_00000178169928601736994560000004803411903894614456_">
		<use xlink:href="#SVGID_00000117649173240407688430000007620078486274500020_"  style="overflow:visible;"/>
	</clipPath>
	
		<path style="clip-path:url(#SVGID_00000178169928601736994560000004803411903894614456_);fill:none;stroke:#000000;stroke-width:3;stroke-linecap:round;stroke-linejoin:round;" d="
		M271.3,144.3c2.2-8.4,5.3-16.1,8.9-22.8c-6.5,6.7-12,16.3-15,27.6c-2.8,10.3-3.1,20.4-1.4,28.9h4C267,168,268.1,156.3,271.3,144.3z
		"/>
</g>
<g>
	<defs>
		<rect id="SVGID_00000054968337976860576820000000100760787469038773_" y="-149" width="720" height="360"/>
	</defs>
	<clipPath id="SVGID_00000054952377024945926840000009872324016446452647_">
		<use xlink:href="#SVGID_00000054968337976860576820000000100760787469038773_"  style="overflow:visible;"/>
	</clipPath>
	<path style="clip-path:url(#SVGID_00000054952377024945926840000009872324016446452647_);fill:#789632;" d="M241.7,74.4
		c4.3,9.6,8.3,20.5,11.4,32.3c7.5,27.8,8.9,53.7,4.9,69.8c7.7-12,8.9-36.3,1.9-62.5C255.7,98.1,249.1,84.3,241.7,74.4"/>
</g>
<g>
	<defs>
		<rect id="SVGID_00000155109827346432703230000003223205814844908465_" y="-149" width="720" height="360"/>
	</defs>
	<clipPath id="SVGID_00000121975621687182167370000016113427297534930354_">
		<use xlink:href="#SVGID_00000155109827346432703230000003223205814844908465_"  style="overflow:visible;"/>
	</clipPath>
	
		<path style="clip-path:url(#SVGID_00000121975621687182167370000016113427297534930354_);fill:none;stroke:#000000;stroke-width:3;stroke-linecap:round;stroke-linejoin:round;" d="
		M241.7,74.4c4.3,9.6,8.3,20.5,11.4,32.3c7.5,27.8,8.9,53.7,4.9,69.8c7.7-12,8.9-36.3,1.9-62.5C255.7,98.1,249.1,84.3,241.7,74.4z"
		/>
</g>
<g>
	<defs>
		<rect id="SVGID_00000164493767264396987040000016234974346119743110_" y="-149" width="720" height="360"/>
	</defs>
	<clipPath id="SVGID_00000044891143188060249020000005589029310164723644_">
		<use xlink:href="#SVGID_00000164493767264396987040000016234974346119743110_"  style="overflow:visible;"/>
	</clipPath>
	
		<path style="clip-path:url(#SVGID_00000044891143188060249020000005589029310164723644_);fill:none;stroke:#000000;stroke-width:3;" d="
		M265.9,172c-0.3-39.8-2.7-76.4-6.5-105.8"/>
</g>
<g>
	<defs>
		<rect id="SVGID_00000010998556263411688530000004275524929713668526_" y="-149" width="720" height="360"/>
	</defs>
	<clipPath id="SVGID_00000097470851719628565880000014458987049608420540_">
		<use xlink:href="#SVGID_00000010998556263411688530000004275524929713668526_"  style="overflow:visible;"/>
	</clipPath>
	<path style="clip-path:url(#SVGID_00000097470851719628565880000014458987049608420540_);fill:#968200;" d="M259.6,47.8
		c-0.2-2-1.7-3.5-3.3-3.3c-1.6,0.2-2.7,2-2.5,4.1c0,0.2,3.3,29.1,3.4,29.6c0.2,2,1.7,3.5,3.3,3.3c1.6-0.2,2.7-2,2.5-4.1
		C262.9,76.9,259.6,48,259.6,47.8"/>
</g>
<g>
	<defs>
		<rect id="SVGID_00000016040631118232292110000005471211383804649884_" y="-149" width="720" height="360"/>
	</defs>
	<clipPath id="SVGID_00000051349757525819628520000009499351308842278846_">
		<use xlink:href="#SVGID_00000016040631118232292110000005471211383804649884_"  style="overflow:visible;"/>
	</clipPath>
	
		<path style="clip-path:url(#SVGID_00000051349757525819628520000009499351308842278846_);fill:none;stroke:#000000;stroke-width:3;" d="
		M259.6,47.8c-0.2-2-1.7-3.5-3.3-3.3c-1.6,0.2-2.7,2-2.5,4.1c0,0.2,3.3,29.1,3.4,29.6c0.2,2,1.7,3.5,3.3,3.3c1.6-0.2,2.7-2,2.5-4.1
		C262.9,76.9,259.6,48,259.6,47.8z"/>
</g>
<g>
	<defs>
		<rect id="SVGID_00000144333138190853327040000003209200995605548963_" y="-149" width="720" height="360"/>
	</defs>
	<clipPath id="SVGID_00000107572005569756795340000015095511818148302486_">
		<use xlink:href="#SVGID_00000144333138190853327040000003209200995605548963_"  style="overflow:visible;"/>
	</clipPath>
	
		<path style="clip-path:url(#SVGID_00000107572005569756795340000015095511818148302486_);fill:none;stroke:#000000;stroke-width:3;" d="
		M265.5,154c0.3-39.8,2.7-76.4,6.5-105.8"/>
</g>
<g>
	<defs>
		<rect id="SVGID_00000121997021603865852260000016742638104292676017_" y="-149" width="720" height="360"/>
	</defs>
	<clipPath id="SVGID_00000000916952413758951320000002132143178471168139_">
		<use xlink:href="#SVGID_00000121997021603865852260000016742638104292676017_"  style="overflow:visible;"/>
	</clipPath>
	<path style="clip-path:url(#SVGID_00000000916952413758951320000002132143178471168139_);fill:#968200;" d="M271.8,29.8
		c0.2-2,1.7-3.5,3.3-3.3c1.6,0.2,2.7,2,2.5,4.1c0,0.2-3.3,29.1-3.4,29.6c-0.2,2-1.7,3.5-3.3,3.3c-1.6-0.2-2.7-2-2.5-4.1
		C268.5,58.9,271.8,30,271.8,29.8"/>
</g>
<g>
	<defs>
		<rect id="SVGID_00000156551504209034632060000013732268944471356573_" y="-149" width="720" height="360"/>
	</defs>
	<clipPath id="SVGID_00000124123494913629859110000006946978266452540554_">
		<use xlink:href="#SVGID_00000156551504209034632060000013732268944471356573_"  style="overflow:visible;"/>
	</clipPath>
	
		<path style="clip-path:url(#SVGID_00000124123494913629859110000006946978266452540554_);fill:none;stroke:#000000;stroke-width:3;" d="
		M271.8,29.8c0.2-2,1.7-3.5,3.3-3.3c1.6,0.2,2.7,2,2.5,4.1c0,0.2-3.3,29.1-3.4,29.6c-0.2,2-1.7,3.5-3.3,3.3c-1.6-0.2-2.7-2-2.5-4.1
		C268.5,58.9,271.8,30,271.8,29.8z"/>
</g>
<g>
	<defs>
		<rect id="SVGID_00000148619928150542482010000014239596240120747196_" y="-149" width="720" height="360"/>
	</defs>
	<clipPath id="SVGID_00000030471956774311405770000007858923485023623830_">
		<use xlink:href="#SVGID_00000148619928150542482010000014239596240120747196_"  style="overflow:visible;"/>
	</clipPath>
	<path style="clip-path:url(#SVGID_00000030471956774311405770000007858923485023623830_);fill:#FFFFFF;" d="M241.2,137.1
		c-0.4-0.7-0.9-1.4-1.4-1.8c0.2-0.4,0.3-0.9,0.3-1.5c0.1-0.1,0.2-0.3,0.3-0.4c0.2,0.4,0.4,0.7,0.7,1c0.2,0.2,0.4,0.3,0.7,0.4
		C241.3,135.3,241.1,136.1,241.2,137.1 M223.4,145.5c1.9,1.8,6.2,0.2,9.6-3.5c0.2-0.2,0.4-0.4,0.6-0.7c-0.1,0.8-0.1,1.6-0.1,2.4
		c0.2,5,2.4,9,5,8.9s4.5-4.2,4.3-9.3c0-0.5-0.1-1-0.1-1.5c0.4,0.7,0.9,1.5,1.4,2.2c3,4,7.1,6,9.2,4.5c2.1-1.5,1.3-6.1-1.7-10.1
		l-0.1-0.1c4.8-0.1,8.6-2,8.7-4.5c0-2.6-4-4.7-9-4.8h-0.1c2.5-3.7,3.2-7.7,1.3-9.1c-2-1.6-6.2,0.3-9.3,4.3c-0.5,0.7-1,1.3-1.4,2
		c0-0.3,0-0.6-0.1-0.9c-0.6-5-3.2-8.8-5.7-8.5s-4,4.4-3.6,9.2c-3.9-1.6-7.5-1.4-8.6,0.6c-1,2,0.8,5,4.1,7.3c-0.6,0.5-1.1,1-1.6,1.5
		C222.8,139.4,221.5,143.8,223.4,145.5"/>
</g>
<g>
	<defs>
		<rect id="SVGID_00000183251329766687223220000004244940779069118882_" y="-149" width="720" height="360"/>
	</defs>
	<clipPath id="SVGID_00000145053654535493026200000003674518559258774404_">
		<use xlink:href="#SVGID_00000183251329766687223220000004244940779069118882_"  style="overflow:visible;"/>
	</clipPath>
	
		<path style="clip-path:url(#SVGID_00000145053654535493026200000003674518559258774404_);fill:none;stroke:#000000;stroke-width:3;" d="
		M241.2,137.1c-0.4-0.7-0.9-1.4-1.4-1.8c0.2-0.4,0.3-0.9,0.3-1.5c0.1-0.1,0.2-0.3,0.3-0.4c0.2,0.4,0.4,0.7,0.7,1
		c0.2,0.2,0.4,0.3,0.7,0.4C241.3,135.3,241.1,136.1,241.2,137.1z M223.4,145.5c1.9,1.8,6.2,0.2,9.6-3.5c0.2-0.2,0.4-0.4,0.6-0.7
		c-0.1,0.8-0.1,1.6-0.1,2.4c0.2,5,2.4,9,5,8.9s4.5-4.2,4.3-9.3c0-0.5-0.1-1-0.1-1.5c0.4,0.7,0.9,1.5,1.4,2.2c3,4,7.1,6,9.2,4.5
		c2.1-1.5,1.3-6.1-1.7-10.1l-0.1-0.1c4.8-0.1,8.6-2,8.7-4.5c0-2.6-4-4.7-9-4.8h-0.1c2.5-3.7,3.2-7.7,1.3-9.1c-2-1.6-6.2,0.3-9.3,4.3
		c-0.5,0.7-1,1.3-1.4,2c0-0.3,0-0.6-0.1-0.9c-0.6-5-3.2-8.8-5.7-8.5s-4,4.4-3.6,9.2c-3.9-1.6-7.5-1.4-8.6,0.6c-1,2,0.8,5,4.1,7.3
		c-0.6,0.5-1.1,1-1.6,1.5C222.8,139.4,221.5,143.8,223.4,145.5z"/>
</g>
<g>
	<defs>
		<rect id="SVGID_00000180365227401214970010000007899469057215186594_" y="-149" width="720" height="360"/>
	</defs>
	<clipPath id="SVGID_00000021095818906299780220000015464458795645277362_">
		<use xlink:href="#SVGID_00000180365227401214970010000007899469057215186594_"  style="overflow:visible;"/>
	</clipPath>
	<path style="clip-path:url(#SVGID_00000021095818906299780220000015464458795645277362_);fill:#FFE954;" d="M236.3,129.8
		c-2.9,2.2-3.5,6.3-1.3,9.2c2.2,2.9,6.3,3.5,9.2,1.3s3.5-6.3,1.3-9.2C243.3,128.2,239.2,127.6,236.3,129.8"/>
</g>
<g>
	<defs>
		<rect id="SVGID_00000183239301645202230060000012824250776315451821_" y="-149" width="720" height="360"/>
	</defs>
	<clipPath id="SVGID_00000066504841007839470400000011519678881599815062_">
		<use xlink:href="#SVGID_00000183239301645202230060000012824250776315451821_"  style="overflow:visible;"/>
	</clipPath>
	
		<path style="clip-path:url(#SVGID_00000066504841007839470400000011519678881599815062_);fill:none;stroke:#000000;stroke-width:3;" d="
		M236.3,129.8c-2.9,2.2-3.5,6.3-1.3,9.2c2.2,2.9,6.3,3.5,9.2,1.3s3.5-6.3,1.3-9.2C243.3,128.2,239.2,127.6,236.3,129.8z"/>
</g>
<g>
	<defs>
		<rect id="SVGID_00000013892795859965847630000014483386441964249504_" y="-149" width="720" height="360"/>
	</defs>
	<clipPath id="SVGID_00000090984266153675679260000011842465483362058114_">
		<use xlink:href="#SVGID_00000013892795859965847630000014483386441964249504_"  style="overflow:visible;"/>
	</clipPath>
	<path style="clip-path:url(#SVGID_00000090984266153675679260000011842465483362058114_);fill:#789632;" d="M455,146
		c4-6.1,8.5-11.4,13.4-15.7c-7.6,3.2-14.8,9.3-20.2,17.5c-4.9,7.5-7.4,15.7-7.8,23.3l3.7,1.4C445.6,164,449.3,154.8,455,146"/>
</g>
<g>
	<defs>
		<rect id="SVGID_00000135662480726306096280000006276770648039976885_" y="-149" width="720" height="360"/>
	</defs>
	<clipPath id="SVGID_00000036966092838071234350000005756653944089586337_">
		<use xlink:href="#SVGID_00000135662480726306096280000006276770648039976885_"  style="overflow:visible;"/>
	</clipPath>
	
		<path style="clip-path:url(#SVGID_00000036966092838071234350000005756653944089586337_);fill:none;stroke:#000000;stroke-width:3;stroke-linecap:round;stroke-linejoin:round;" d="
		M455,146c4-6.1,8.5-11.4,13.4-15.7c-7.6,3.2-14.8,9.3-20.2,17.5c-4.9,7.5-7.4,15.7-7.8,23.3l3.7,1.4C445.6,164,449.3,154.8,455,146
		z"/>
</g>
<g>
	<defs>
		<rect id="SVGID_00000124849238277089482720000017461726647041626246_" y="-149" width="720" height="360"/>
	</defs>
	<clipPath id="SVGID_00000157994950823828770280000011375787946324333207_">
		<use xlink:href="#SVGID_00000124849238277089482720000017461726647041626246_"  style="overflow:visible;"/>
	</clipPath>
	
		<path style="clip-path:url(#SVGID_00000157994950823828770280000011375787946324333207_);fill:none;stroke:#000000;stroke-width:3;" d="
		M439.8,177.7c4.4-32.8,7-63,7.7-88.3"/>
</g>
<g>
	<defs>
		<rect id="SVGID_00000163788741470538932780000014067442413696764289_" y="-149" width="720" height="360"/>
	</defs>
	<clipPath id="SVGID_00000035502468882104685110000015214893735130321812_">
		<use xlink:href="#SVGID_00000163788741470538932780000014067442413696764289_"  style="overflow:visible;"/>
	</clipPath>
	<path style="clip-path:url(#SVGID_00000035502468882104685110000015214893735130321812_);fill:#968200;" d="M450.5,71.3
		c0.1-2.1-1.2-3.8-2.8-3.8s-3,1.6-3.1,3.6c0,0.2-1.3,29.3-1.3,29.8c-0.1,2.1,1.2,3.8,2.8,3.8c1.6,0,3-1.6,3.1-3.6
		C449.2,100.6,450.5,71.5,450.5,71.3"/>
</g>
<g>
	<defs>
		<rect id="SVGID_00000102509161318522668560000016710441706911161998_" y="-149" width="720" height="360"/>
	</defs>
	<clipPath id="SVGID_00000093898338552219352150000001895637024695037617_">
		<use xlink:href="#SVGID_00000102509161318522668560000016710441706911161998_"  style="overflow:visible;"/>
	</clipPath>
	
		<path style="clip-path:url(#SVGID_00000093898338552219352150000001895637024695037617_);fill:none;stroke:#000000;stroke-width:3;" d="
		M450.5,71.3c0.1-2.1-1.2-3.8-2.8-3.8s-3,1.6-3.1,3.6c0,0.2-1.3,29.3-1.3,29.8c-0.1,2.1,1.2,3.8,2.8,3.8c1.6,0,3-1.6,3.1-3.6
		C449.2,100.6,450.5,71.5,450.5,71.3z"/>
</g>
<g>
	<defs>
		<rect id="SVGID_00000051356136181610036130000007219885536004100997_" y="-149" width="720" height="360"/>
	</defs>
	<clipPath id="SVGID_00000146495416917064051580000008903799432678904233_">
		<use xlink:href="#SVGID_00000051356136181610036130000007219885536004100997_"  style="overflow:visible;"/>
	</clipPath>
	
		<path style="clip-path:url(#SVGID_00000146495416917064051580000008903799432678904233_);fill:none;stroke:#000000;stroke-width:3;" d="
		M438.7,177.7c9.2-38.7,19.8-73.8,30.2-101.7"/>
</g>
<g>
	<defs>
		<rect id="SVGID_00000157283419079959963480000008323289138390587066_" y="-149" width="720" height="360"/>
	</defs>
	<clipPath id="SVGID_00000163762656538541817720000006559647007082880916_">
		<use xlink:href="#SVGID_00000157283419079959963480000008323289138390587066_"  style="overflow:visible;"/>
	</clipPath>
	<path style="clip-path:url(#SVGID_00000163762656538541817720000006559647007082880916_);fill:#968200;" d="M472.8,58.1
		c0.7-1.9,2.5-3.1,4-2.5s2.2,2.6,1.5,4.5c-0.1,0.2-9.8,27.6-10,28.1c-0.7,1.9-2.5,3.1-4,2.5s-2.2-2.6-1.5-4.5
		C463,85.7,472.7,58.3,472.8,58.1"/>
</g>
<g>
	<defs>
		<rect id="SVGID_00000036238432476070877500000004295361699903566221_" y="-149" width="720" height="360"/>
	</defs>
	<clipPath id="SVGID_00000172429412251773033240000005894528675857590708_">
		<use xlink:href="#SVGID_00000036238432476070877500000004295361699903566221_"  style="overflow:visible;"/>
	</clipPath>
	
		<path style="clip-path:url(#SVGID_00000172429412251773033240000005894528675857590708_);fill:none;stroke:#000000;stroke-width:3;" d="
		M472.8,58.1c0.7-1.9,2.5-3.1,4-2.5s2.2,2.6,1.5,4.5c-0.1,0.2-9.8,27.6-10,28.1c-0.7,1.9-2.5,3.1-4,2.5s-2.2-2.6-1.5-4.5
		C463,85.7,472.7,58.3,472.8,58.1z"/>
</g>
<g>
	<defs>
		<rect id="SVGID_00000000214033805427060200000005078887836113050013_" y="-149" width="720" height="360"/>
	</defs>
	<clipPath id="SVGID_00000138567988737774380690000000622291075708813957_">
		<use xlink:href="#SVGID_00000000214033805427060200000005078887836113050013_"  style="overflow:visible;"/>
	</clipPath>
	<path style="clip-path:url(#SVGID_00000138567988737774380690000000622291075708813957_);fill:#FFFFFF;" d="M433.3,161.4
		c0.7,0.2,1.3,0.5,1.8,0.9c0.3-0.3,0.8-0.4,1.2-0.5c0.1-0.1,0.2-0.2,0.3-0.3c-0.4-0.1-0.7-0.2-1-0.5c-0.2-0.1-0.3-0.3-0.4-0.5
		C434.8,161,434.1,161.3,433.3,161.4 M429.3,178.3c-1.9-1.3-1.3-5.3,1.2-8.9c0.2-0.2,0.3-0.4,0.5-0.6c-0.7,0.2-1.4,0.4-2.1,0.5
		c-4.3,0.8-8.2-0.4-8.6-2.6s2.8-4.7,7.2-5.4c0.4-0.1,0.9-0.1,1.3-0.2c-0.7-0.2-1.4-0.5-2.1-0.8c-4-1.9-6.5-5-5.5-7.1s5-2.2,9-0.3
		c0,0,0.1,0,0.1,0.1c-0.8-4.1,0.1-7.8,2.3-8.3c2.2-0.5,4.8,2.6,5.8,6.9v0.1c2.7-2.9,6-4.1,7.6-2.8c1.7,1.5,0.8,5.4-2,8.8
		c-0.5,0.6-1,1.1-1.5,1.5c0.2,0,0.5-0.1,0.8-0.1c4.4-0.4,8.1,1.1,8.3,3.4c0.2,2.2-3,4.3-7.2,4.8c2.1,3,2.6,6.2,1,7.5
		c-1.5,1.3-4.5,0.3-7.1-2.2c-0.3,0.6-0.6,1.1-1,1.7C434.7,177.7,431.1,179.6,429.3,178.3"/>
</g>
<g>
	<defs>
		<rect id="SVGID_00000181799016327705895760000009934458965214763156_" y="-149" width="720" height="360"/>
	</defs>
	<clipPath id="SVGID_00000074405417786704800460000012055735152333818298_">
		<use xlink:href="#SVGID_00000181799016327705895760000009934458965214763156_"  style="overflow:visible;"/>
	</clipPath>
	
		<path style="clip-path:url(#SVGID_00000074405417786704800460000012055735152333818298_);fill:none;stroke:#000000;stroke-width:3;" d="
		M433.3,161.4c0.7,0.2,1.3,0.5,1.8,0.9c0.3-0.3,0.8-0.4,1.2-0.5c0.1-0.1,0.2-0.2,0.3-0.3c-0.4-0.1-0.7-0.2-1-0.5
		c-0.2-0.1-0.3-0.3-0.4-0.5C434.8,161,434.1,161.3,433.3,161.4z M429.3,178.3c-1.9-1.3-1.3-5.3,1.2-8.9c0.2-0.2,0.3-0.4,0.5-0.6
		c-0.7,0.2-1.4,0.4-2.1,0.5c-4.3,0.8-8.2-0.4-8.6-2.6s2.8-4.7,7.2-5.4c0.4-0.1,0.9-0.1,1.3-0.2c-0.7-0.2-1.4-0.5-2.1-0.8
		c-4-1.9-6.5-5-5.5-7.1s5-2.2,9-0.3c0,0,0.1,0,0.1,0.1c-0.8-4.1,0.1-7.8,2.3-8.3c2.2-0.5,4.8,2.6,5.8,6.9v0.1c2.7-2.9,6-4.1,7.6-2.8
		c1.7,1.5,0.8,5.4-2,8.8c-0.5,0.6-1,1.1-1.5,1.5c0.2,0,0.5-0.1,0.8-0.1c4.4-0.4,8.1,1.1,8.3,3.4c0.2,2.2-3,4.3-7.2,4.8
		c2.1,3,2.6,6.2,1,7.5c-1.5,1.3-4.5,0.3-7.1-2.2c-0.3,0.6-0.6,1.1-1,1.7C434.7,177.7,431.1,179.6,429.3,178.3z"/>
</g>
<g>
	<defs>
		<rect id="SVGID_00000147191058134189711090000007751676900419988619_" y="-149" width="720" height="360"/>
	</defs>
	<clipPath id="SVGID_00000145746280654828195300000017419751068371054727_">
		<use xlink:href="#SVGID_00000147191058134189711090000007751676900419988619_"  style="overflow:visible;"/>
	</clipPath>
	<path style="clip-path:url(#SVGID_00000145746280654828195300000017419751068371054727_);fill:#FFE954;" d="M440.4,164.2
		c-1.3,2.8-4.7,4.1-7.5,2.7c-2.8-1.3-4.1-4.7-2.7-7.5c1.3-2.8,4.7-4.1,7.5-2.7C440.5,158,441.7,161.3,440.4,164.2"/>
</g>
<g>
	<defs>
		<rect id="SVGID_00000147917743397030044760000001593701857090009776_" y="-149" width="720" height="360"/>
	</defs>
	<clipPath id="SVGID_00000153675540287572802020000012632810397876431269_">
		<use xlink:href="#SVGID_00000147917743397030044760000001593701857090009776_"  style="overflow:visible;"/>
	</clipPath>
	
		<path style="clip-path:url(#SVGID_00000153675540287572802020000012632810397876431269_);fill:none;stroke:#000000;stroke-width:3;" d="
		M440.4,164.2c-1.3,2.8-4.7,4.1-7.5,2.7c-2.8-1.3-4.1-4.7-2.7-7.5c1.3-2.8,4.7-4.1,7.5-2.7C440.5,158,441.7,161.3,440.4,164.2z"/>
</g>
<g>
	<defs>
		<rect id="SVGID_00000075847975240685419640000001352983897722563722_" y="-149" width="720" height="360"/>
	</defs>
	<clipPath id="SVGID_00000133509562132776585860000017565354871635614626_">
		<use xlink:href="#SVGID_00000075847975240685419640000001352983897722563722_"  style="overflow:visible;"/>
	</clipPath>
	<path style="clip-path:url(#SVGID_00000133509562132776585860000017565354871635614626_);fill:#FFFFFF;" d="M476.8,154.6
		c0.5-0.4,1-0.7,1.5-0.8c0-0.4,0.1-0.8,0.3-1.1c0-0.1-0.1-0.3-0.1-0.4c-0.2,0.2-0.5,0.4-0.8,0.5c-0.2,0.1-0.4,0.1-0.6,0
		C477.2,153.3,477.1,154,476.8,154.6 M486.7,165.8c-1.8,0.7-4.4-1.7-5.7-5.3c-0.1-0.2-0.1-0.4-0.2-0.6c-0.2,0.6-0.4,1.2-0.7,1.7
		c-1.6,3.5-4.4,5.6-6.1,4.8c-1.8-0.8-1.9-4.3-0.3-7.8c0.2-0.4,0.3-0.7,0.5-1c-0.5,0.4-1,0.8-1.6,1.1c-3.3,1.9-6.8,2.1-7.8,0.4
		s0.9-4.6,4.2-6.5c0,0,0.1,0,0.1-0.1c-3.3-1.5-5.5-4-4.8-5.7c0.7-1.8,4.2-2.1,7.7-0.7c0,0,0,0,0.1,0c-0.7-3.4,0.1-6.3,1.8-6.8
		c1.9-0.5,4.2,2.1,5.2,5.8c0.2,0.6,0.3,1.2,0.4,1.8c0.1-0.2,0.2-0.4,0.3-0.6c1.9-3.3,4.8-5.2,6.5-4.2c1.6,1,1.5,4.3-0.2,7.5
		c3.2,0.1,5.7,1.3,5.8,3c0.1,1.7-2,3.3-5.1,3.9c0.2,0.5,0.5,1,0.7,1.6C489,161.7,488.6,165.2,486.7,165.8"/>
</g>
<g>
	<defs>
		<rect id="SVGID_00000009586046808283364430000016155693787082696635_" y="-149" width="720" height="360"/>
	</defs>
	<clipPath id="SVGID_00000003814901934562206050000006576532683713619609_">
		<use xlink:href="#SVGID_00000009586046808283364430000016155693787082696635_"  style="overflow:visible;"/>
	</clipPath>
	
		<path style="clip-path:url(#SVGID_00000003814901934562206050000006576532683713619609_);fill:none;stroke:#000000;stroke-width:3;" d="
		M476.8,154.6c0.5-0.4,1-0.7,1.5-0.8c0-0.4,0.1-0.8,0.3-1.1c0-0.1-0.1-0.3-0.1-0.4c-0.2,0.2-0.5,0.4-0.8,0.5c-0.2,0.1-0.4,0.1-0.6,0
		C477.2,153.3,477.1,154,476.8,154.6z M486.7,165.8c-1.8,0.7-4.4-1.7-5.7-5.3c-0.1-0.2-0.1-0.4-0.2-0.6c-0.2,0.6-0.4,1.2-0.7,1.7
		c-1.6,3.5-4.4,5.6-6.1,4.8c-1.8-0.8-1.9-4.3-0.3-7.8c0.2-0.4,0.3-0.7,0.5-1c-0.5,0.4-1,0.8-1.6,1.1c-3.3,1.9-6.8,2.1-7.8,0.4
		s0.9-4.6,4.2-6.5c0,0,0.1,0,0.1-0.1c-3.3-1.5-5.5-4-4.8-5.7c0.7-1.8,4.2-2.1,7.7-0.7c0,0,0,0,0.1,0c-0.7-3.4,0.1-6.3,1.8-6.8
		c1.9-0.5,4.2,2.1,5.2,5.8c0.2,0.6,0.3,1.2,0.4,1.8c0.1-0.2,0.2-0.4,0.3-0.6c1.9-3.3,4.8-5.2,6.5-4.2c1.6,1,1.5,4.3-0.2,7.5
		c3.2,0.1,5.7,1.3,5.8,3c0.1,1.7-2,3.3-5.1,3.9c0.2,0.5,0.5,1,0.7,1.6C489,161.7,488.6,165.2,486.7,165.8z"/>
</g>
<g>
	<defs>
		<rect id="SVGID_00000134936459169674185630000003407139544908505493_" y="-149" width="720" height="360"/>
	</defs>
	<clipPath id="SVGID_00000113355257359684903720000013079512835958238601_">
		<use xlink:href="#SVGID_00000134936459169674185630000003407139544908505493_"  style="overflow:visible;"/>
	</clipPath>
	<path style="clip-path:url(#SVGID_00000113355257359684903720000013079512835958238601_);fill:#FFE954;" d="M482.1,151
		c1.3,2.3,0.5,5.2-1.8,6.5s-5.2,0.5-6.5-1.7c-1.3-2.3-0.5-5.2,1.8-6.5C477.9,147.9,480.8,148.7,482.1,151"/>
</g>
<g>
	<defs>
		<rect id="SVGID_00000004517242878041432040000003317661891246799525_" y="-149" width="720" height="360"/>
	</defs>
	<clipPath id="SVGID_00000082344443960322249140000016633851347854519231_">
		<use xlink:href="#SVGID_00000004517242878041432040000003317661891246799525_"  style="overflow:visible;"/>
	</clipPath>
	
		<path style="clip-path:url(#SVGID_00000082344443960322249140000016633851347854519231_);fill:none;stroke:#000000;stroke-width:3;" d="
		M482.1,151c1.3,2.3,0.5,5.2-1.8,6.5s-5.2,0.5-6.5-1.7c-1.3-2.3-0.5-5.2,1.8-6.5C477.9,147.9,480.8,148.7,482.1,151z"/>
</g>
</svg>
